<svg width="128" height="128" viewBox="0 0 128 128" fill="none" xmlns="http://www.w3.org/2000/svg" role="img" aria-labelledby="title desc">
  <title id="title">DeliverFlow logo</title>
  <desc id="desc">A blue delivery mark with a forward arrow and approval check.</desc>
  <path d="M24 28C24 22.4772 28.4772 18 34 18H61C86.4051 18 107 38.5949 107 64C107 89.4051 86.4051 110 61 110H34C28.4772 110 24 105.523 24 100V28Z" fill="#EFF6FF"/>
  <path d="M37 35H60.5C76.7924 35 90 48.2076 90 64.5C90 80.7924 76.7924 94 60.5 94H37V35Z" fill="#2563EB"/>
  <path d="M51 50H60.5C68.5081 50 75 56.4919 75 64.5C75 72.5081 68.5081 79 60.5 79H51V50Z" fill="white"/>
  <path d="M58 64H99" stroke="#0F172A" stroke-width="8" stroke-linecap="round"/>
  <path d="M85 50L101 64L85 78" stroke="#0F172A" stroke-width="8" stroke-linecap="round" stroke-linejoin="round"/>
  <path d="M38 72L50 84L76 55" stroke="#38BDF8" stroke-width="8" stroke-linecap="round" stroke-linejoin="round"/>
  <path d="M37 35H60.5C76.7924 35 90 48.2076 90 64.5C90 80.7924 76.7924 94 60.5 94H37V35Z" stroke="#1D4ED8" stroke-width="4"/>
</svg>
